<svg xmlns="http://www.w3.org/2000/svg" xmlns:xlink="http://www.w3.org/1999/xlink" width="512" height="512" viewBox="0 0 512 512">
  <defs>
    <clipPath id="clip-custom_1">
      <rect width="512" height="512"/>
    </clipPath>
  </defs>
  <g id="custom_1" data-name="custom – 1" clip-path="url(#clip-custom_1)">
    <rect width="512" height="512" fill="#fff"/>
    <rect id="Camera_base" data-name="Camera base" width="360" height="280" rx="36" transform="translate(76 65)" stroke-width="10" stroke="#000" stroke-linecap="round" stroke-linejoin="round"/>
    <g id="Jest_snapshot" data-name="Jest snapshot" transform="translate(0 161)">
      <rect id="Rectangle_2" data-name="Rectangle 2" width="200" height="200" rx="10" transform="translate(156 116)" stroke-width="16" stroke="#000" stroke-linecap="round" stroke-linejoin="round" fill="#984955"/>
      <g id="jest-outline" transform="translate(198.962 153)">
        <path id="Path_1" data-name="Path 1" d="M194.4,95.6l-7.5,15.137a16.2,16.2,0,0,1,4.889,8.691h5.649a16.239,16.239,0,0,1,4.527-8.365Z" transform="translate(-119.192 -60.979)" fill="none" stroke="#fff" stroke-linecap="round" stroke-linejoin="round" stroke-width="1"/>
        <path id="Path_2" data-name="Path 2" d="M78.414,58.858l13.8-27.885,13.761,28.066c.543-.181,1.086-.326,1.63-.471L120.675,20H63.711L76.748,58.459C77.291,58.568,77.87,58.713,78.414,58.858ZM73.67,83.519A9.132,9.132,0,0,0,81.311,69.4a8.964,8.964,0,0,0-1.014-1.3l-.036-.036a6.756,6.756,0,0,0-1.231-1.05l-.036-.036a3.817,3.817,0,0,0-.4-.254c-.036,0-.036-.036-.072-.036-.145-.072-.29-.181-.435-.253h-.036c-.145-.072-.326-.181-.471-.253h-.036a2.215,2.215,0,0,0-.435-.181c-.036,0-.072-.036-.109-.036-.109-.036-.253-.109-.362-.145-.036,0-.072-.036-.145-.036-.145-.036-.29-.109-.435-.145h-.036c-.181-.036-.326-.072-.507-.109a.274.274,0,0,1-.145-.036c-.145-.036-.253-.036-.4-.072a.326.326,0,0,1-.181-.036c-.109,0-.253-.036-.362-.036H73.018c-.145,0-.253.036-.4.036h-.145c-.145.036-.29.036-.435.072h-.109c-.181.036-.326.072-.507.109a9.164,9.164,0,0,0-6.953,8.872,9.261,9.261,0,0,0,9.2,9.09Zm38.387-18.252h-.072c-.145,0-.254-.036-.4-.036h-.471a3.314,3.314,0,0,0-.579.036h-.181c-.145,0-.29.036-.435.036a.218.218,0,0,0-.145.036l-.543.109H109.2c-.181.036-.326.072-.507.109-.036,0-.109.036-.145.036a2.042,2.042,0,0,0-.435.145c-.036,0-.072.036-.109.036-.181.072-.362.145-.507.217-.181.072-.326.145-.507.217-.036,0-.072.036-.109.036a2.7,2.7,0,0,0-.435.253.035.035,0,0,0-.036.036,5.468,5.468,0,0,0-.942.652l-.036.036a9.9,9.9,0,0,0-1.267,1.2,8.008,8.008,0,0,0-1.014,1.449,9.12,9.12,0,1,0,9.705-4.454,4.492,4.492,0,0,0-.8-.145ZM35.826,83.519A9.126,9.126,0,1,0,26.7,74.393,9.134,9.134,0,0,0,35.826,83.519Z" transform="translate(-17.007 -12.757)" fill="none" stroke="#fff" stroke-linecap="round" stroke-linejoin="round" stroke-width="1"/>
        <path id="Path_3" data-name="Path 3" d="M106.9,193.532A16.243,16.243,0,0,1,91.224,181.4H85.14a16.243,16.243,0,0,1-15.681,12.132,18.433,18.433,0,0,1-2.5-.181,48.645,48.645,0,0,1-7.533,8.945,49.89,49.89,0,0,1-17.383,10.792l-1.485.543-1.376-.724c-7.6-3.911-11.516-11.842-10.14-19.519a14.057,14.057,0,0,1-2.5-.652c-.145.253-.253.543-.4.833-2.318,4.78-4.744,9.705-5.613,14.993-.942,5.649-1.34,15.97,6.627,21.475a19.248,19.248,0,0,0,11.226,3.585c7.858,0,16.333-4.2,25.314-8.655,7.026-3.477,14.268-7.1,21.8-8.945,2.861-.688,5.758-1.123,8.547-1.521,5.106-.724,9.959-1.449,13.906-3.73a16,16,0,0,0,7.858-11.118,16.245,16.245,0,0,0-.724-8.329A16.36,16.36,0,0,1,106.9,193.532Z" transform="translate(-12.76 -115.708)" fill="none" stroke="#fff" stroke-linecap="round" stroke-linejoin="round" stroke-width="1"/>
        <path id="Path_4" data-name="Path 4" d="M110.332,61.6A16.243,16.243,0,0,0,98.2,45.919L113.772,0H36.6L52.208,46.064a16.2,16.2,0,0,0-4.853,28.79,43.147,43.147,0,0,1-5.649,6.482,42.421,42.421,0,0,1-13.291,8.583,10.9,10.9,0,0,1-4.527-12.747A16.23,16.23,0,1,0,7.629,73.08c-.253.507-.507,1.014-.76,1.557C4.442,79.635,1.69,85.284.64,91.621c-2.1,12.675,1.34,22.851,9.633,28.609a26.542,26.542,0,0,0,15.355,4.853c9.524,0,19.193-4.78,28.537-9.416,6.663-3.3,13.544-6.736,20.316-8.4,2.5-.616,5.106-.978,7.858-1.376,5.577-.8,11.335-1.63,16.514-4.635a23.359,23.359,0,0,0,11.371-16.115,23.9,23.9,0,0,0-2.318-14.956A16.133,16.133,0,0,0,110.332,61.6Zm-7.062,0a9.126,9.126,0,1,1-17.057-4.527,10.351,10.351,0,0,1,1.014-1.449,7.974,7.974,0,0,1,1.267-1.2l.036-.036c.29-.217.616-.435.942-.652a.035.035,0,0,0,.036-.036c.145-.072.29-.181.435-.253.036,0,.072-.036.109-.036.145-.072.326-.145.507-.217s.362-.145.507-.217c.036,0,.072-.036.109-.036.145-.036.29-.109.435-.145.036,0,.109-.036.145-.036.181-.036.326-.072.507-.109H92.3l.543-.109a.218.218,0,0,0,.145-.036c.145,0,.29-.036.435-.036H93.6c.181,0,.362-.036.579-.036h.471a1.486,1.486,0,0,1,.4.036h.072a7.252,7.252,0,0,1,.869.145A9.206,9.206,0,0,1,103.27,61.6ZM46.7,7.243h56.965L90.6,45.811a13.8,13.8,0,0,0-1.63.471L75.2,18.216,61.407,46.1a12.944,12.944,0,0,0-1.7-.4ZM72.6,58.449a16.069,16.069,0,0,0-4.889-8.691l7.5-15.137,7.569,15.463a16.359,16.359,0,0,0-4.527,8.365ZM54.454,52.728c.181-.036.326-.072.507-.109h.109c.145-.036.29-.036.435-.072h.145c.145,0,.253-.036.4-.036h1.412c.145,0,.253.036.362.036a.326.326,0,0,1,.181.036c.145.036.253.036.4.072a.274.274,0,0,1,.145.036c.181.036.362.072.507.109h.036a2.042,2.042,0,0,1,.435.145c.036,0,.072.036.145.036a1.514,1.514,0,0,1,.362.145c.036,0,.072.036.109.036.145.072.29.109.435.181h.036a1.951,1.951,0,0,1,.471.253h.036c.145.072.29.181.435.253.036,0,.036.036.072.036.145.072.253.181.4.253l.036.036c.435.326.833.688,1.231,1.05l.036.036a8.965,8.965,0,0,1,1.014,1.3,9.133,9.133,0,1,1-9.886-3.839Zm-35.635-.253A9.126,9.126,0,1,1,9.693,61.6a9.134,9.134,0,0,1,9.126-9.126Zm84.234,31.4a16,16,0,0,1-7.858,11.118c-3.947,2.281-8.8,3.006-13.906,3.73-2.788.4-5.722.833-8.546,1.521-7.533,1.847-14.775,5.468-21.8,8.945-8.981,4.454-17.455,8.655-25.314,8.655A19,19,0,0,1,14.4,114.255c-7.967-5.5-7.569-15.826-6.627-21.475.869-5.287,3.3-10.249,5.613-14.993.145-.29.253-.543.4-.833a14.058,14.058,0,0,0,2.5.652c-1.376,7.677,2.535,15.608,10.14,19.519l1.376.724,1.485-.543A49.363,49.363,0,0,0,46.668,86.515,48.644,48.644,0,0,0,54.2,77.57a14.508,14.508,0,0,0,2.5.181A16.243,16.243,0,0,0,72.38,65.62h6.084A16.2,16.2,0,0,0,94.144,77.751a16.024,16.024,0,0,0,8.184-2.245,16.452,16.452,0,0,1,.724,8.365Z" fill="#fff"/>
      </g>
    </g>
    <path id="Camera_body" data-name="Camera body" d="M36,294A36,36,0,0,1,0,258V60A36,36,0,0,1,36,24H75V12A17,17,0,0,1,92-5H268a17,17,0,0,1,17,17V24h39a36,36,0,0,1,36,36V258a36,36,0,0,1-36,36Z" transform="translate(76 41)" fill="#fff" stroke="#000" stroke-linecap="round" stroke-linejoin="round" stroke-width="16"/>
    <g id="Camera_lens" data-name="Camera lens">
      <circle id="Ellipse_1" data-name="Ellipse 1" cx="90" cy="90" r="90" transform="translate(166 115)" stroke-width="10" stroke="#fff" stroke-linecap="round" stroke-linejoin="round" fill="#984955"/>
      <path id="Intersection_1" data-name="Intersection 1" d="M10,90a90.367,90.367,0,0,1,1.856-18.272q.178-.08.359-.156A19.994,19.994,0,0,1,40,90a20,20,0,1,0,40,0,20,20,0,1,1,40,0,20,20,0,1,0,40,0,20.012,20.012,0,0,1,27.785-18.428q.18.076.359.156A90.008,90.008,0,1,1,10,90Z" transform="translate(156 115)" stroke="#fff" stroke-linecap="round" stroke-linejoin="round" stroke-width="10"/>
    </g>
    <g id="View_finder" data-name="View finder" transform="translate(-40 -30)">
      <circle id="Ellipse_2" data-name="Ellipse 2" cx="15" cy="15" r="15" transform="translate(136 115)" stroke-width="10" stroke="#000" stroke-linecap="round" stroke-linejoin="round"/>
      <circle id="Ellipse_14" data-name="Ellipse 14" cx="7.5" cy="7.5" r="7.5" transform="translate(141 115)" fill="#fff"/>
    </g>
  </g>
</svg>
